<svg width="20" height="20" viewBox="0 0 20 20" fill="none" xmlns="http://www.w3.org/2000/svg">    <rect width="16" height="16" rx="1" transform="translate(2 2)" fill="#00A2C0"/>    <rect x="-1" y="-1" width="18" height="18" rx="2" transform="translate(2 2)" stroke="black" stroke-opacity="0.1" stroke-width="2"/>    <path fill-rule="evenodd" clip-rule="evenodd" d="M13.5064 8.09639V8.43374V8.60241L13.4902 9H11.859H8.41579H8.12206L8.08322 8.70725L7.59761 5.34755L5.39064 13.7488L5.32466 14H5.06626H3.84432H3.57889L3.51781 13.7403L2.35073 9H0.335509H0V8.75175V7.26457V7H0.335509H3.60889H3.86052L3.89663 7.18754L4.4989 9.85397L6.97472 0.252682L7.03987 0H7.29949H8.55406H8.85111L8.8871 0.296477L9.72815 7.01887H11.8289L12.3159 7.01886L12.6309 7.01887H13.4902L13.5064 7.18754V7.35622V8.09639Z" transform="translate(3 3)" fill="white"/>    <path d="M14.412 8C14.412 8.97814 13.6233 9.77108 12.6505 9.77108C11.6777 9.77108 10.8891 8.97814 10.8891 8C10.8891 7.02186 11.6777 6.22891 12.6505 6.22891C13.6233 6.22891 14.412 7.02186 14.412 8Z" transform="translate(3 3)" fill="white"/>    <path d="M12.6505 5.22891C11.8975 5.22891 11.2169 5.53062 10.7197 6.01887H10.6108L9.87981 0.175971L9.87936 0.172332L9.84382 -0.120507L9.73706 -1H8.85111H8.55406H7.29949H7.03987H6.265L6.07154 -0.24967L6.0064 0.00298649L6.00639 0.00301231L4.45999 6H3.86052H3.60889H0.335509H0H-1V7V7.26457V8.75175V9V10H0H0.335509H1.56708L2.54556 13.9743L2.60545 14.2289L2.78679 15H3.57889H3.84432H5.06626H5.32466H6.0959L6.29185 14.2541L6.35783 14.0029L6.35783 14.0029L7.40936 10H8.12206H8.41579H10.7391C11.2345 10.4771 11.9072 10.7711 12.6505 10.7711C14.1808 10.7711 15.412 9.52526 15.412 8C15.412 6.47474 14.1808 5.22891 12.6505 5.22891Z" transform="translate(3 3)" stroke="black" stroke-opacity="0.1" stroke-width="2"/></svg>